<svg width="32" height="32" viewBox="0 0 32 32" fill="none" xmlns="http://www.w3.org/2000/svg">
<path d="M30.8571 4.56982H1.14286C0.821428 4.56982 0.547619 4.68292 0.321428 4.90911C0.107143 5.1234 0 5.39125 0 5.71268V26.2841C0 26.6055 0.107143 26.8793 0.321428 27.1055C0.547619 27.3198 0.821428 27.427 1.14286 27.427H30.8571C31.1786 27.427 31.4464 27.3198 31.6607 27.1055C31.8869 26.8793 32 26.6055 32 26.2841V5.71268C32 5.39125 31.8869 5.1234 31.6607 4.90911C31.4464 4.68292 31.1786 4.56982 30.8571 4.56982ZM24 5.71268C24.3214 5.71268 24.5893 5.82578 24.8036 6.05197C25.0297 6.26625 25.1428 6.53411 25.1428 6.85554C25.1428 7.17697 25.0297 7.45077 24.8036 7.67697C24.5893 7.89125 24.3214 7.99839 24 7.99839C23.6786 7.99839 23.4047 7.89125 23.1786 7.67697C22.9643 7.45077 22.8571 7.17697 22.8571 6.85554C22.8571 6.53411 22.9643 6.26625 23.1786 6.05197C23.4047 5.82578 23.6786 5.71268 24 5.71268ZM19.4286 5.71268C19.75 5.71268 20.0178 5.82578 20.2321 6.05197C20.4583 6.26625 20.5714 6.53411 20.5714 6.85554C20.5714 7.17697 20.4583 7.45077 20.2321 7.67697C20.0178 7.89125 19.75 7.99839 19.4286 7.99839C19.1071 7.99839 18.8333 7.89125 18.6071 7.67697C18.3928 7.45077 18.2857 7.17697 18.2857 6.85554C18.2857 6.53411 18.3928 6.26625 18.6071 6.05197C18.8333 5.82578 19.1071 5.71268 19.4286 5.71268ZM29.7143 25.1412H2.28571V9.14125H29.7143V25.1412ZM28.5714 7.99839C28.25 7.99839 27.9762 7.89125 27.75 7.67697C27.5357 7.45077 27.4286 7.17697 27.4286 6.85554C27.4286 6.53411 27.5357 6.26625 27.75 6.05197C27.9762 5.82578 28.25 5.71268 28.5714 5.71268C28.8928 5.71268 29.1607 5.82578 29.375 6.05197C29.6012 6.26625 29.7143 6.53411 29.7143 6.85554C29.7143 7.17697 29.6012 7.45077 29.375 7.67697C29.1607 7.89125 28.8928 7.99839 28.5714 7.99839Z" fill="white"/>
<path d="M17.0384 17.364C17.0457 17.2906 17.0495 17.2161 17.0495 17.1407C17.0495 15.9122 16.0585 14.9151 14.8328 14.905H11.2913L11.2717 14.9051C10.0445 14.9136 9.05211 15.9113 9.05211 17.1407C9.05211 18.2287 9.82934 19.1352 10.8586 19.3353C11.1875 20.2902 11.7265 21.1473 12.4203 21.8514H11.2976L11.2878 21.8514L11.2779 21.8514H11.2605C8.67137 21.8367 6.57705 19.7332 6.57705 17.1407C6.57705 14.5481 8.67137 12.4447 11.2605 12.43L11.2878 12.4299H14.8411C17.4302 12.4446 19.5245 14.5481 19.5245 17.1407C19.5245 17.2314 19.522 17.3215 19.5169 17.411H17.1913L17.1868 17.411L17.1843 17.411L17.1811 17.411H17.1793C17.127 17.4097 17.0785 17.3925 17.0384 17.364Z" fill="white"/>
<path d="M14.9616 16.9173C14.9543 16.9908 14.9505 17.0653 14.9505 17.1407C14.9505 18.3691 15.9415 19.3663 17.1672 19.3764H20.7087L20.7283 19.3763C21.9555 19.3678 22.9479 18.37 22.9479 17.1407C22.9479 16.0527 22.1707 15.1462 21.1414 14.9461C20.8125 13.9911 20.2735 13.134 19.5797 12.4299H20.7024L20.7122 12.4299L20.7221 12.4299H20.7395C23.3286 12.4446 25.4229 14.5481 25.4229 17.1407C25.4229 19.7332 23.3286 21.8366 20.7395 21.8513L20.7122 21.8514H17.1589C14.5698 21.8367 12.4755 19.7332 12.4755 17.1407C12.4755 17.05 12.478 16.9598 12.4831 16.8704H14.8087L14.8132 16.8704L14.8157 16.8704L14.8189 16.8704H14.8207C14.873 16.8717 14.9215 16.8888 14.9616 16.9173Z" fill="white"/>
</svg>
