<svg width="32" height="32" viewBox="0 0 32 32" fill="none" xmlns="http://www.w3.org/2000/svg">
<path fill-rule="evenodd" clip-rule="evenodd" d="M25.2161 3.43146L31.4978 14.2817C32.1521 15.4238 32.1521 16.5659 31.4978 17.7081L25.2161 28.5583C24.5617 29.7004 23.5743 30.2715 22.2537 30.2715H9.72595C8.40536 30.2715 7.41789 29.7004 6.76355 28.5583L0.481836 17.7081C-0.160612 16.5659 -0.160612 15.4238 0.481836 14.2817L6.76355 3.43146C7.41789 2.28933 8.40536 1.71826 9.72595 1.71826H22.2537C23.5743 1.71826 24.5617 2.28933 25.2161 3.43146ZM22.2537 26.8273H9.72595L3.47993 15.9949L9.72595 5.1625H22.2537L28.4997 15.9949L22.2537 26.8273Z" fill="white"/>
<path d="M17.0384 16.2232C17.0457 16.1497 17.0495 16.0752 17.0495 15.9998C17.0495 14.7713 16.0585 13.7742 14.8328 13.7641H11.2913L11.2717 13.7642C10.0445 13.7727 9.05211 14.7704 9.05211 15.9998C9.05211 17.0878 9.82934 17.9943 10.8586 18.1944C11.1875 19.1493 11.7265 20.0064 12.4203 20.7105H11.2976L11.2878 20.7105L11.2779 20.7105H11.2605C8.67137 20.6958 6.57705 18.5924 6.57705 15.9998C6.57705 13.4072 8.67137 11.3038 11.2605 11.2891L11.2878 11.2891H14.8411C17.4302 11.3038 19.5245 13.4072 19.5245 15.9998C19.5245 16.0905 19.522 16.1806 19.5169 16.2701H17.1913L17.1868 16.2701L17.1843 16.2701L17.1811 16.2701H17.1793C17.127 16.2688 17.0785 16.2516 17.0384 16.2232Z" fill="white"/>
<path d="M14.9616 15.7764C14.9543 15.8499 14.9505 15.9244 14.9505 15.9998C14.9505 17.2283 15.9415 18.2254 17.1672 18.2355H20.7087L20.7283 18.2354C21.9555 18.2269 22.9479 17.2292 22.9479 15.9998C22.9479 14.9118 22.1707 14.0053 21.1414 13.8052C20.8125 12.8503 20.2735 11.9932 19.5797 11.2891H20.7024L20.7122 11.2891L20.7221 11.2891H20.7395C23.3286 11.3038 25.4229 13.4072 25.4229 15.9998C25.4229 18.5924 23.3286 20.6958 20.7395 20.7105L20.7122 20.7105H17.1589C14.5698 20.6958 12.4755 18.5923 12.4755 15.9998C12.4755 15.9091 12.478 15.819 12.4831 15.7295H14.8087L14.8132 15.7295L14.8157 15.7295L14.8189 15.7295H14.8207C14.873 15.7308 14.9215 15.748 14.9616 15.7764Z" fill="white"/>
</svg>
